<svg xmlns="http://www.w3.org/2000/svg" viewBox="0 0 500 500" width="100%" height="100%">
    <rect width="500" height="500" fill="#012169"/>
    <path d="M0,0 L50,0 L500,450 L500,500 L450,500 L0,50 Z" fill="#FFFFFF"/>
    <path d="M500,0 L500,50 L50,500 L0,500 L0,450 L450,0 Z" fill="#FFFFFF"/>
    <path d="M0,0 L20,0 L500,480 L500,500 L480,500 L0,20 Z" fill="#C8102E"/>
    <path d="M500,0 L500,20 L20,500 L0,500 L0,480 L480,0 Z" fill="#C8102E"/>
    <rect x="190" y="0" width="120" height="500" fill="#FFFFFF"/>
    <rect x="0" y="190" width="500" height="120" fill="#FFFFFF"/>
    <rect x="215" y="0" width="70" height="500" fill="#C8102E"/>
    <rect x="0" y="215" width="500" height="70" fill="#C8102E"/>
</svg>